<svg width="20" height="16" fill="none" xmlns="http://www.w3.org/2000/svg"><path d="M.2287 1.4145c.825.8107 1.7018 1.489 2.6646 2.0575 1.94 1.1447 4.0415 1.783 6.299 1.9275.693.0443 1.0327-.328.891-.9935C9.5809 2.0418 11.4187.2947 13.3698.0384c1.2402-.1627 2.3033.192 3.1851 1.0567.3385.3316.7661.4208 1.206.4409.4524.0206.9078-.02 1.3621-.0334.0513-.0012.1021 0 .1794 0-.3391.5897-.745 1.0973-1.2871 1.4896-.2599.1877-.3694.4282-.3614.741.0941 3.719-1.2673 6.8385-4.0798 9.3223-1.893 1.6712-4.1498 2.5809-6.6746 2.8627-1.7493.1949-3.4653.0419-5.1485-.464-.0693-.0206-.1361-.0491-.2277-.0825.492-.1452.9585-.2648 1.4127-.4203.9536-.3255 1.8323-.7949 2.6368-1.3949.3014-.2241.4121-.5004.3274-.8089-.088-.3194-.3255-.5174-.7172-.5375-1.0663-.0546-1.9747-.4414-2.7148-1.1993-.0947-.0972-.1788-.2053-.2859-.3292.3416-.0631.6584-.1044.966-.1822.471-.119.6906-.5641.513-.9916-.1188-.2855-.3645-.3905-.6467-.4555-.9752-.2253-1.7481-.7464-2.2995-1.565C.527 7.208.3915 6.894.217 6.5673c.3948.0431.7283.0935 1.0637.1117.4233.0231.6999-.1597.8119-.498.1095-.3315-.0012-.6254-.3428-.8605C.8648 4.7108.3135 3.8941.1464 2.8428c-.0736-.4663-.06-.934.0823-1.4283Z" fill="#C4C4C4"/></svg>