<svg width="18" height="17" fill="none" xmlns="http://www.w3.org/2000/svg"><path d="M.3906 14.7754V2.2246c.011-.042.025-.083.0323-.1253C.573 1.2555 1.0206.63 1.7783.2573 2.027.135 2.3102.0838 2.5775 0h12.3381c.0306.01.0604.0245.0918.0295.8658.1456 1.4933.6221 1.8642 1.4269.1105.2399.1558.5113.2309.7682v12.5508c-.011.0419-.0249.083-.0322.1253-.1502.8438-.5974 1.4693-1.355 1.842-.2489.1224-.5321.1735-.7993.2573h-4.2106v-6.0114h2.4807l.4904-2.9933h-2.963V5.9737h2.9499V2.9879c-.9747 0-1.9372-.0021-2.8997.0004-1.7046.005-2.9902 1.3136-2.9955 3.0476-.002.5923-.0004 1.1841-.0004 1.7764v.1946H5.817v2.985h1.9507v6.0077H2.5779c-.0306-.01-.0604-.0245-.0918-.0295-.8658-.1457-1.4933-.6221-1.8641-1.4269-.111-.2395-.1563-.5109-.2314-.7678Z" fill="#C4C4C4"/></svg>