<svg width="18" height="18" viewBox="0 0 18 18" fill="none" xmlns="http://www.w3.org/2000/svg">
<path fill-rule="evenodd" clip-rule="evenodd" d="M7.37616 17.6599C7.81884 17.6699 8.26153 17.6799 8.70418 17.6909C8.70418 17.6799 8.7046 17.6689 8.7046 17.6579C8.87958 17.6579 9.0546 17.6596 9.22961 17.6612C9.6146 17.6649 9.99953 17.6685 10.3839 17.6546C10.6944 17.6433 11.0055 17.6359 11.3167 17.6285C12.2086 17.6072 13.101 17.5859 13.9818 17.474C15.6145 17.2664 16.7218 16.3152 17.1231 14.6646C17.285 13.9974 17.3412 13.2918 17.3529 12.6018C17.3895 10.4337 17.3978 8.26436 17.3845 6.09586C17.3795 5.22026 17.3383 4.33958 17.2296 3.47201C17.0128 1.74237 15.9475 0.569122 14.2661 0.228352C13.5401 0.0812205 12.7858 0.0372502 12.0432 0.0245664C10.1849 -0.00714298 8.32536 -0.00122389 6.46666 0.0046952C6.38439 0.00495694 6.3021 0.0051174 6.21979 0.00527789C5.23855 0.0071913 4.25584 0.00910756 3.28377 0.182691C1.67525 0.470189 0.571685 1.5073 0.242822 3.13631C0.10087 3.83857 0.054246 4.56873 0.0392598 5.2879C0.00304323 7.01416 -0.0102778 8.74127 0.0084549 10.4675C0.0217759 11.6869 0.0534134 12.9104 0.168307 14.1234C0.280704 15.3089 0.831029 16.2864 1.85425 16.9316C2.54611 17.3679 3.32373 17.5421 4.12507 17.5713C5.20834 17.6109 6.29223 17.6354 7.37616 17.6599ZM8.69502 14.3568C5.68363 14.3538 3.23506 11.8649 3.23964 8.81187C3.24422 5.75297 5.69987 3.26696 8.7046 3.27964C11.7256 3.29275 14.1654 5.78172 14.1467 8.83217C14.1279 11.8944 11.6952 14.3597 8.69502 14.3568ZM13.0935 3.02174C13.1076 2.3161 13.6862 1.75801 14.3906 1.7707C15.1029 1.78338 15.6499 2.36683 15.6328 3.0953C15.6157 3.80602 15.0442 4.36072 14.339 4.35015C13.6375 4.34 13.0789 3.74387 13.0935 3.02174ZM8.69368 5.22746C6.73757 5.22746 5.16402 6.82434 5.1611 8.81231C5.15819 10.799 6.72924 12.401 8.68577 12.4052C10.6444 12.4094 12.2208 10.8189 12.2288 8.83091C12.2367 6.83491 10.6598 5.22746 8.69368 5.22746Z" fill="#C4C4C4"/>
</svg>
