<svg width="277" height="87" viewBox="0 0 277 87" fill="none" xmlns="http://www.w3.org/2000/svg">
<path d="M8.73841 16.5655H5.83839V13.6272V10.94C5.83839 4.81231 7.14201 3.4899 13.1826 3.4899H31.6563H34.5528V6.4282V13.6272H40.3912V0H3.98405C1.78812 0 0 1.8139 0 4.0415V13.6272V22.6684H8.73493H31.6563H34.5528V25.6067V76.06C34.5528 78.8357 34.5528 80.6637 33.1481 82.0887C31.7434 83.5101 29.9413 83.5101 27.2086 83.5101H8.73493H5.83839V80.5718V25.6067H0V87H36.4106C38.6066 87 40.3947 85.1861 40.3947 82.9585V25.6067V16.5655H31.6598H8.73841Z" fill="#6C6C6C"/>
<path d="M77.9035 80.5718V83.5101H75.0035H56.5298H56.3904H56.2579C53.7134 83.5101 51.8765 83.5101 50.4823 81.9896C49.1856 80.5753 49.1856 78.8745 49.1856 76.06V25.6067V22.6684H52.0822H75.0035H83.7384V13.6272V4.04149C83.7384 1.8139 81.9503 0 79.7544 0H43.3472V13.6272H49.1856V6.4282V3.48636H52.0822H70.5559C73.2781 3.48636 75.0802 3.48636 76.4814 4.88657C77.9 6.30798 77.9 8.12188 77.9 10.8692V10.9364V13.6237V16.562H75H52.0787H43.3438V25.6032V82.9514C43.3438 85.179 45.1319 86.9929 47.3278 86.9929H83.7419V25.6067H77.9035V80.5718Z" fill="#6C6C6C"/>
<path d="M176.126 30.9508C179.32 30.9508 182.514 30.9508 185.603 30.9508C184.749 31.6944 183.577 32.2893 183.121 33.2348C182.65 34.2121 182.844 35.5293 182.817 36.7032C182.781 38.2701 182.838 39.8423 182.791 41.4092C182.76 42.4556 183.137 42.9761 184.215 42.9708C187.252 42.9549 190.289 42.9548 193.331 42.9867C194.504 42.9973 194.86 42.4024 194.845 41.3136C194.813 39.1305 194.808 36.9422 194.85 34.7539C194.881 33.0754 194.253 31.9494 192.572 31.5457C192.295 31.4766 192.038 31.3014 191.415 30.9986C192.007 30.903 192.206 30.8393 192.399 30.8393C195.368 30.834 198.342 30.834 201.327 30.834C201.301 31.0783 201.311 31.2536 201.269 31.2642C198.52 32.1459 198.389 32.5761 198.4 35.7046C198.421 41.0852 198.405 46.4658 198.405 51.8463C198.405 55.3944 198.405 55.3944 201.609 56.632C198.264 56.632 194.918 56.632 191.295 56.632C194.824 55.2829 194.834 55.2669 194.834 51.4108C194.834 49.5624 194.792 47.7087 194.845 45.8603C194.871 44.8245 194.567 44.3199 193.447 44.3412C190.41 44.389 187.367 44.389 184.331 44.3412C183.205 44.3252 182.749 44.7183 182.786 45.9027C182.859 47.9742 182.802 50.051 182.807 52.1225C182.812 55.3094 183.069 55.6494 186.017 56.6161C182.618 56.6161 179.225 56.6161 175.827 56.6161C175.817 56.547 175.806 56.478 175.796 56.4036C176.084 56.3399 176.367 56.239 176.66 56.2124C178.204 56.0584 179.152 55.2616 179.157 53.6469C179.184 47.0872 179.168 40.5328 179.163 33.9731C179.168 31.9334 177.482 31.7635 176.126 30.9508Z" fill="#7C7C7C"/>
<path d="M238.861 43.6232C238.877 51.5639 233.264 57.5925 225.97 57.465C219.582 57.3534 214.64 52.3659 213.906 45.291C213.2 38.4551 217.477 32.1237 223.441 30.6524C231.798 28.5969 238.982 35.4594 238.861 43.6232ZM234.851 42.7255C234.463 41.217 234.102 38.2692 232.95 35.6825C230.74 30.7162 224.174 30.0522 220.682 34.1899C217.216 38.2957 217.08 48.5469 220.431 53.0989C223.562 57.3481 229.531 57.2631 232.531 52.9183C234.364 50.2679 234.62 47.2084 234.851 42.7255Z" fill="#7C7C7C"/>
<path d="M256.136 37.1484C256.136 38.1363 256.136 39.1189 256.136 40.1069C256.126 44.0321 256.115 47.952 256.105 51.8772C256.094 55.2182 256.367 55.6059 259.356 56.6523C256.744 56.6523 254.126 56.6523 251.508 56.6523C251.534 56.562 251.539 56.3973 251.586 56.3814C254.456 55.4837 254.702 55.1544 254.696 51.9888C254.691 46.8313 254.67 41.6738 254.66 36.5216C254.655 33.7171 253.874 32.6389 251.23 31.7572C250.879 31.6403 250.544 31.4757 250.12 31.3004C252.576 30.0894 256.424 30.8277 257.985 32.777C262.126 37.9451 266.258 43.1291 270.373 48.3185C270.808 48.8656 271.138 49.503 271.514 50.0979C271.729 49.9544 271.944 49.811 272.159 49.6676C272.195 49.0834 272.268 48.4938 272.268 47.9095C272.279 43.9312 272.221 39.9475 272.295 35.9692C272.337 33.6587 272.179 31.5978 269.342 30.9923C271.844 30.9923 274.342 30.9923 276.845 30.9923C273.693 31.5075 273.698 33.8712 273.708 36.2614C273.724 42.5927 273.724 48.9293 273.719 55.2606C273.719 55.8024 273.651 56.3389 273.352 57.0347C267.498 50.5546 262.252 43.6072 256.702 36.9306C256.513 37.005 256.325 37.0793 256.136 37.1484Z" fill="#7C7C7C"/>
<path d="M111.586 56.9666C111.586 54.3055 111.586 51.6392 111.586 49.0843C112.57 50.7893 113.298 52.7121 114.581 54.0984C116.241 55.8884 118.586 56.4142 121.011 55.8459C122.707 55.4475 124.074 54.5658 124.513 52.6802C124.974 50.6937 124.294 49.0737 122.681 48.0061C120.325 46.4445 117.843 45.0847 115.46 43.5709C114.486 42.9548 113.481 42.2856 112.732 41.4251C110.774 39.173 110.502 36.5597 111.785 34.1058C113.083 31.6147 116.157 29.9522 119.01 30.3187C120.147 30.4621 121.288 30.7702 122.361 31.1738C123.691 31.6784 124.906 32.0662 126.027 30C126.027 33.2878 126.027 36.0392 126.027 38.7906C125.911 38.8224 125.796 38.849 125.681 38.8809C125.487 38.2276 125.288 37.5742 125.095 36.9156C124.136 33.6809 121.529 31.6678 118.377 31.7369C116.351 31.7794 114.565 33.0382 114.041 34.7857C113.565 36.3685 114.167 38.0841 115.958 39.2261C118.335 40.7452 120.937 41.9138 123.267 43.4966C124.781 44.527 126.409 45.7965 127.247 47.3634C129.671 51.9047 125.959 57.3278 120.424 57.3862C118.602 57.4075 116.769 56.7435 114.947 56.3558C113.78 56.1274 112.554 55.4528 111.586 56.9666Z" fill="#7C7C7C"/>
<path d="M162.908 30.711C163.065 33.2978 163.222 35.8898 163.384 38.4765C163.243 38.5084 163.102 38.5349 162.965 38.5668C162.761 38.1472 162.541 37.7329 162.358 37.308C160.662 33.3243 158.091 31.4228 154.268 31.529C150.32 31.6406 147.692 33.8024 146.482 37.4885C145.058 41.8387 144.885 46.2579 146.629 50.6399C149.038 56.6844 158.049 57.4917 161.332 53.1097C161.95 52.2865 162.688 51.5535 163.369 50.778C163.531 50.9055 163.693 51.0382 163.856 51.1657C162.981 52.2865 162.222 53.5187 161.222 54.5014C156.326 59.2924 146.174 58.5009 142.54 50.4327C139.131 42.8532 142.508 33.7386 149.959 31.0138C152.886 29.9462 155.839 29.9727 158.682 31.2794C160.148 31.9539 161.457 32.5807 162.468 30.4136C162.62 30.5092 162.766 30.6101 162.908 30.711Z" fill="#7C7C7C"/>
</svg>
